<?xml version="1.0" encoding="UTF-8" standalone="no"?>
<!-- Created with Inkscape (http://www.inkscape.org/) -->

<svg
   xmlns:dc="http://purl.org/dc/elements/1.1/"
   xmlns:cc="http://creativecommons.org/ns#"
   xmlns:rdf="http://www.w3.org/1999/02/22-rdf-syntax-ns#"
   xmlns:svg="http://www.w3.org/2000/svg"
   xmlns="http://www.w3.org/2000/svg"
   xmlns:sodipodi="http://sodipodi.sourceforge.net/DTD/sodipodi-0.dtd"
   xmlns:inkscape="http://www.inkscape.org/namespaces/inkscape"
   width="78.171165mm"
   height="81.477478mm"
   viewBox="0 0 78.171161 81.477479"
   version="1.1"
   id="svg8"
   sodipodi:docname="stuff.svg"
   inkscape:version="0.92.4 (5da689c313, 2019-01-14)">
  <defs
     id="defs2" />
  <sodipodi:namedview
     id="base"
     pagecolor="#eee2b9"
     bordercolor="#666666"
     borderopacity="1.0"
     inkscape:pageopacity="1"
     inkscape:pageshadow="2"
     inkscape:zoom="1.4"
     inkscape:cx="-18.23048"
     inkscape:cy="97.811291"
     inkscape:document-units="mm"
     inkscape:current-layer="layer1"
     showgrid="false"
     fit-margin-top="0"
     fit-margin-left="0"
     fit-margin-right="0"
     fit-margin-bottom="0"
     inkscape:window-width="1920"
     inkscape:window-height="1057"
     inkscape:window-x="-8"
     inkscape:window-y="-8"
     inkscape:window-maximized="1"
     inkscape:pagecheckerboard="true" />
  <metadata
     id="metadata5">
    <rdf:RDF>
      <cc:Work
         rdf:about="">
        <dc:format>image/svg+xml</dc:format>
        <dc:type
           rdf:resource="http://purl.org/dc/dcmitype/StillImage" />
        <dc:title></dc:title>
      </cc:Work>
    </rdf:RDF>
  </metadata>
  <g
     inkscape:label="Layer 1"
     inkscape:groupmode="layer"
     id="layer1"
     transform="translate(-84.824189,-78.879622)">
    <rect
       style="opacity:1;fill:none;fill-opacity:1;stroke:#000000;stroke-width:0.30000001;stroke-linecap:round;stroke-linejoin:round;stroke-miterlimit:4;stroke-dasharray:2.4, 2.4;stroke-dashoffset:0;stroke-opacity:1;paint-order:markers fill stroke"
       id="rect905"
       width="53.861607"
       height="75.595238"
       x="103.09161"
       y="84.611862" />
    <g
       id="g952"
       transform="rotate(-28.160247,118.18426,144.25168)">
      <path
         sodipodi:nodetypes="cssc"
         inkscape:connector-curvature="0"
         id="path911"
         d="m 85.95169,143.75115 c 0,0 7.304518,-3.50009 11.140826,-3.38301 4.946344,0.15096 9.224744,4.66498 14.148784,5.2321 4.21779,0.48578 12.63781,-1.63029 12.63781,-1.63029"
         style="fill:none;stroke:#000000;stroke-width:0.2;stroke-linecap:butt;stroke-linejoin:miter;stroke-miterlimit:4;stroke-dasharray:none;stroke-opacity:1" />
      <path
         style="fill:none;stroke:#000000;stroke-width:0.2;stroke-linecap:butt;stroke-linejoin:miter;stroke-miterlimit:4;stroke-dasharray:none;stroke-opacity:1"
         d="m 85.95169,142.11749 c 0,0 7.304518,-3.50011 11.140826,-3.38302 4.946344,0.15097 9.224744,4.66498 14.148784,5.2321 4.21779,0.48577 12.63781,-1.63029 12.63781,-1.63029"
         id="path913"
         inkscape:connector-curvature="0"
         sodipodi:nodetypes="cssc" />
      <path
         sodipodi:nodetypes="cssc"
         inkscape:connector-curvature="0"
         id="path915"
         d="m 85.95169,140.48381 c 0,0 7.304518,-3.50009 11.140826,-3.38301 4.946344,0.15096 9.224744,4.66498 14.148784,5.2321 4.21779,0.48578 12.63781,-1.63029 12.63781,-1.63029"
         style="fill:none;stroke:#000000;stroke-width:0.2;stroke-linecap:butt;stroke-linejoin:miter;stroke-miterlimit:4;stroke-dasharray:none;stroke-opacity:1" />
      <path
         style="fill:none;stroke:#000000;stroke-width:0.2;stroke-linecap:butt;stroke-linejoin:miter;stroke-miterlimit:4;stroke-dasharray:none;stroke-opacity:1"
         d="m 85.95169,138.85015 c 0,0 7.304518,-3.50011 11.140826,-3.38302 4.946344,0.15097 9.224744,4.66498 14.148784,5.2321 4.21779,0.48577 12.63781,-1.63029 12.63781,-1.63029"
         id="path917"
         inkscape:connector-curvature="0"
         sodipodi:nodetypes="cssc" />
      <path
         sodipodi:nodetypes="cssc"
         inkscape:connector-curvature="0"
         id="path919"
         d="m 85.95169,137.21647 c 0,0 7.304518,-3.50009 11.140826,-3.38301 4.946344,0.15096 9.224744,4.66498 14.148784,5.23209 4.21779,0.48579 12.63781,-1.63028 12.63781,-1.63028"
         style="fill:none;stroke:#000000;stroke-width:0.2;stroke-linecap:butt;stroke-linejoin:miter;stroke-miterlimit:4;stroke-dasharray:none;stroke-opacity:1" />
      <path
         style="fill:none;stroke:#000000;stroke-width:0.2;stroke-linecap:butt;stroke-linejoin:miter;stroke-miterlimit:4;stroke-dasharray:none;stroke-opacity:1"
         d="m 85.95169,135.58281 c 0,0 7.304518,-3.50011 11.140826,-3.38302 4.946344,0.15097 9.224744,4.66498 14.148784,5.2321 4.21779,0.48577 12.63781,-1.63029 12.63781,-1.63029"
         id="path921"
         inkscape:connector-curvature="0"
         sodipodi:nodetypes="cssc" />
      <path
         sodipodi:nodetypes="cssc"
         inkscape:connector-curvature="0"
         id="path923"
         d="m 85.95169,133.94913 c 0,0 7.304518,-3.50009 11.140826,-3.38301 4.946344,0.15096 9.224744,4.66498 14.148784,5.23209 4.21779,0.48579 12.63781,-1.63028 12.63781,-1.63028"
         style="fill:none;stroke:#000000;stroke-width:0.2;stroke-linecap:butt;stroke-linejoin:miter;stroke-miterlimit:4;stroke-dasharray:none;stroke-opacity:1" />
    </g>
    <circle
       style="opacity:1;fill:none;fill-opacity:1;stroke:#000000;stroke-width:0.2;stroke-linecap:round;stroke-linejoin:round;stroke-miterlimit:4;stroke-dasharray:none;stroke-dashoffset:0;stroke-opacity:1;paint-order:markers fill stroke"
       id="path936"
       cx="149.72623"
       cy="92.14875"
       r="13.169128" />
  </g>
</svg>
