<?xml version="1.0" encoding="UTF-8" standalone="no"?>
<!-- Created with Inkscape (http://www.inkscape.org/) -->

<svg
   xmlns:dc="http://purl.org/dc/elements/1.1/"
   xmlns:cc="http://creativecommons.org/ns#"
   xmlns:rdf="http://www.w3.org/1999/02/22-rdf-syntax-ns#"
   xmlns:svg="http://www.w3.org/2000/svg"
   xmlns="http://www.w3.org/2000/svg"
   xmlns:sodipodi="http://sodipodi.sourceforge.net/DTD/sodipodi-0.dtd"
   xmlns:inkscape="http://www.inkscape.org/namespaces/inkscape"
   width="104.42226mm"
   height="121.68532mm"
   viewBox="0 0 104.42225 121.68532"
   version="1.1"
   id="svg8"
   sodipodi:docname="heart.svg"
   inkscape:version="0.92.4 (5da689c313, 2019-01-14)">
  <defs
     id="defs2" />
  <sodipodi:namedview
     id="base"
     pagecolor="#eee2b9"
     bordercolor="#666666"
     borderopacity="1.0"
     inkscape:pageopacity="1"
     inkscape:pageshadow="2"
     inkscape:zoom="0.49497475"
     inkscape:cx="119.52161"
     inkscape:cy="488.26392"
     inkscape:document-units="mm"
     inkscape:current-layer="layer1"
     showgrid="false"
     fit-margin-top="0"
     fit-margin-left="0"
     fit-margin-right="0"
     fit-margin-bottom="0"
     inkscape:window-width="1920"
     inkscape:window-height="1057"
     inkscape:window-x="-8"
     inkscape:window-y="-8"
     inkscape:window-maximized="1"
     inkscape:pagecheckerboard="true" />
  <metadata
     id="metadata5">
    <rdf:RDF>
      <cc:Work
         rdf:about="">
        <dc:format>image/svg+xml</dc:format>
        <dc:type
           rdf:resource="http://purl.org/dc/dcmitype/StillImage" />
        <dc:title></dc:title>
      </cc:Work>
    </rdf:RDF>
  </metadata>
  <g
     inkscape:label="Layer 1"
     inkscape:groupmode="layer"
     id="layer1"
     transform="translate(-61.473945,-67.920078)">
    <path
       style="opacity:1;fill:#ff0000;fill-opacity:1;stroke:none;stroke-width:0.5;stroke-linecap:round;stroke-linejoin:round;stroke-miterlimit:4;stroke-dasharray:none;stroke-dashoffset:0;stroke-opacity:1;paint-order:markers fill stroke"
       id="path890"
       d="m 113.76053,107.59987 c 0.0124,-0.35126 0.0159,-0.70271 0.0195,-1.05414 0.003,-0.46379 0.0114,-0.92752 0.0159,-1.3913 0.004,-0.55402 0.006,-1.10805 0.008,-1.66208 -0.004,-0.57344 0.0143,-1.14723 -0.003,-1.72048 -0.0208,-0.59252 -0.044,-1.18495 -0.0648,-1.77747 -0.0196,-0.58908 -0.0689,-1.17683 -0.10822,-1.76488 -0.0522,-0.589534 -0.12589,-1.17738 -0.20878,-1.76335 -0.0908,-0.654047 -0.20633,-1.304007 -0.33255,-1.951993 -0.13638,-0.63518 -0.29297,-1.265528 -0.44251,-1.897649 -0.14864,-0.625325 -0.31996,-1.244764 -0.51931,-1.855772 -0.22404,-0.706213 -0.48376,-1.399778 -0.74965,-2.09101 -0.27576,-0.700095 -0.57059,-1.392581 -0.8688,-2.083366 -0.31991,-0.682414 -0.62291,-1.372664 -0.947,-2.053103 -0.31025,-0.671269 -0.64577,-1.330148 -0.98378,-1.987691 -0.31997,-0.608634 -0.65155,-1.210683 -1.00358,-1.801375 -0.32046,-0.558412 -0.68161,-1.092293 -1.04859,-1.620854 -0.34186,-0.490781 -0.71564,-0.959353 -1.10642,-1.411946 -0.38413,-0.44277 -0.79519,-0.862261 -1.21851,-1.267534 -0.36947,-0.35184 -0.77629,-0.659649 -1.19476,-0.950069 -0.43144,-0.296021 -0.88998,-0.548298 -1.35518,-0.786429 -0.47337,-0.24235 -0.96423,-0.445042 -1.46447,-0.624001 -0.485432,-0.180978 -0.989622,-0.299969 -1.493526,-0.415853 -0.492107,-0.100278 -0.989105,-0.172509 -1.490083,-0.207381 -0.508897,-0.04459 -1.019043,-0.04297 -1.529059,-0.02817 -0.508746,0.03113 -1.016643,0.07286 -1.520669,0.149682 -0.500427,0.0663 -0.991833,0.177306 -1.480346,0.301771 -0.530066,0.143941 -1.055786,0.304945 -1.576374,0.480092 -0.473901,0.168748 -0.934459,0.370377 -1.394423,0.573198 -0.422376,0.200703 -0.833689,0.424902 -1.237525,0.66057 -0.411856,0.227475 -0.801106,0.492606 -1.18576,0.762756 -0.369668,0.27259 -0.734226,0.551662 -1.074467,0.860494 -0.390142,0.333079 -0.746567,0.701006 -1.102202,1.069702 -0.371816,0.385255 -0.721066,0.790766 -1.066471,1.199545 -0.364086,0.444285 -0.704909,0.906703 -1.048814,1.366557 -0.326028,0.447373 -0.652299,0.894783 -0.954701,1.358601 -0.320231,0.474511 -0.601721,0.973328 -0.888373,1.468392 -0.274876,0.488103 -0.529204,0.987782 -0.773287,1.491917 -0.268661,0.525462 -0.5196,1.059169 -0.749234,1.602756 -0.220335,0.556966 -0.443651,1.112866 -0.652804,1.674174 -0.199874,0.539044 -0.368033,1.088869 -0.526053,1.641377 -0.168169,0.610394 -0.347932,1.217396 -0.510468,1.829351 -0.155483,0.589092 -0.285869,1.184285 -0.408472,1.780945 -0.126923,0.623691 -0.233008,1.251299 -0.332925,1.879793 -0.102719,0.652184 -0.188804,1.306793 -0.269907,1.961962 -0.08273,0.674349 -0.152249,1.350201 -0.21776,2.026411 -0.06643,0.69162 -0.12237,1.38418 -0.175104,2.07696 -0.05322,0.70514 -0.09813,1.41086 -0.140475,2.11672 -0.04258,0.71574 -0.07857,1.43184 -0.112511,2.14803 -0.03403,0.72408 -0.06284,1.4484 -0.09,2.17277 -0.02719,0.73067 -0.05021,1.46148 -0.07194,2.19232 -0.0217,0.73588 -0.0401,1.47184 -0.05746,2.20783 -0.0173,0.74 -0.03201,1.48005 -0.04588,2.22011 -0.01299,0.7633 -0.02215,1.52653 -0.05291,2.28935 -0.03336,0.72545 -0.06762,1.45085 -0.09891,2.17639 -0.03098,0.72229 -0.05729,1.44476 -0.08209,2.16728 -0.02482,0.72905 -0.04583,1.45823 -0.06566,2.18743 -0.01982,0.73458 -0.0366,1.46923 -0.05244,2.20391 -0.0158,0.73897 0.0061,1.48417 -0.04262,2.22169 -0.04882,0.74094 -0.09571,1.48202 -0.142006,2.22312 -0.02589,0.69415 -0.04257,1.3886 -0.06167,2.08295 -0.02901,0.69254 -0.03322,1.38512 -0.0315,2.07811 0.0028,0.71699 0.0017,1.43399 -0.0018,2.15098 -0.0142,0.68353 0.0073,1.36684 0.02207,2.05015 0.01908,0.69979 0.0167,1.4 0.03637,2.09974 0.02567,0.71574 0.05062,1.43149 0.07086,2.14741 0.02055,0.73883 0.03246,1.47785 0.04159,2.2169 0.0088,0.74229 0.01064,1.48463 0.0103,2.22697 -0.0035,0.7133 -0.0098,1.42626 0.0052,2.13943 0.01732,0.7218 0.03022,1.44369 0.03978,2.16564 0.01287,0.71898 0.0041,1.43821 0.0182,2.15714 0.01981,0.72909 0.03984,1.45814 0.05545,2.18733 0.0071,0.72201 0.02762,1.44345 0.05501,2.16492 0.02615,0.72575 0.07767,1.45032 0.118878,2.17533 0.0386,0.73152 0.06866,1.4632 0.118782,2.19404 0.05272,0.73767 0.09588,1.47597 0.133912,2.21453 0.03352,0.71644 0.05844,1.43296 0.103716,2.14877 0.04799,0.72496 0.08695,1.45047 0.121023,2.17621 0.02199,0.69881 0.06145,1.3964 0.10524,2.0941 0.05026,0.52713 0.09,1.05531 0.150205,1.58142 0.416449,3.85724 -0.513086,4.36715 -1.281466,0.56433 v 0 c -0.11849,-0.60098 -0.228937,-1.20363 -0.331152,-1.8076 -0.110893,-0.71746 -0.211927,-1.43614 -0.305051,-2.15613 -0.09763,-0.69483 -0.200508,-1.38887 -0.309697,-2.08197 -0.110301,-0.72581 -0.201241,-1.45416 -0.304333,-2.181 -0.102183,-0.70581 -0.209818,-1.4108 -0.324262,-2.11474 -0.116331,-0.74032 -0.213422,-1.4833 -0.322854,-2.22466 -0.11271,-0.75176 -0.236302,-1.50203 -0.333408,-2.25601 -0.09778,-0.74582 -0.189019,-1.49225 -0.265871,-2.24056 -0.08331,-0.72915 -0.17142,-1.45771 -0.258976,-2.18635 -0.08056,-0.72468 -0.142495,-1.45127 -0.221266,-2.17616 -0.07539,-0.70903 -0.154609,-1.41762 -0.235645,-2.12601 -0.08077,-0.74311 -0.140815,-1.48803 -0.207829,-2.23246 -0.06602,-0.71584 -0.134157,-1.43148 -0.209073,-2.14645 -0.07433,-0.70598 -0.151342,-1.41171 -0.236699,-2.11646 -0.0866,-0.71222 -0.17832,-1.42378 -0.270504,-2.13529 -0.08502,-0.70642 -0.152098,-1.41485 -0.235525,-2.12149 -0.08289,-0.7262 -0.165854,-1.45244 -0.220345,-2.18148 -0.06215,-0.70336 -0.126804,-1.40649 -0.194217,-2.10937 -0.06914,-0.74263 -0.125575,-1.48605 -0.167317,-2.23077 -0.04911,-0.75681 -0.103075,-1.5135 -0.132752,-2.2714 -0.02222,-0.74857 -0.04386,-1.49716 -0.0636,-2.24579 -0.0196,-0.7469 0.02137,-1.48885 0.03705,-2.23584 0.01577,-0.74484 0.03247,-1.48966 0.05218,-2.23441 0.01979,-0.74209 0.0408,-1.48415 0.0656,-2.22609 0.0249,-0.73853 0.05129,-1.477 0.08244,-2.21529 0.03079,-0.72531 0.06402,-1.45052 0.09904,-2.17564 0.03258,-0.71895 0.04326,-1.43819 0.05357,-2.15779 0.01381,-0.74885 0.02847,-1.49769 0.04573,-2.24647 0.01736,-0.74709 0.03576,-1.49416 0.05747,-2.24114 0.02183,-0.74493 0.04496,-1.48981 0.07226,-2.23456 0.02744,-0.74224 0.05654,-1.48444 0.09092,-2.2264 0.03453,-0.73897 0.07115,-1.47784 0.114491,-2.21635 0.04349,-0.73498 0.08964,-1.46981 0.144338,-2.20405 0.05485,-0.73016 0.113093,-1.46009 0.182242,-2.18905 0.06932,-0.72442 0.14296,-1.448466 0.23059,-2.170932 0.08783,-0.717682 0.181218,-1.43474 0.292624,-2.1492 0.111725,-0.70989 0.230629,-1.418751 0.372842,-2.123268 0.142555,-0.699431 0.294524,-1.397092 0.475846,-2.087655 0.170748,-0.645827 0.359431,-1.286391 0.538543,-1.929865 0.196922,-0.691248 0.407114,-1.378977 0.656974,-2.053228 0.236974,-0.636042 0.490519,-1.265658 0.741323,-1.896316 0.265932,-0.628095 0.549878,-1.248156 0.863245,-1.854206 0.303588,-0.628464 0.61599,-1.253426 0.962882,-1.85933 0.337656,-0.581258 0.672142,-1.164902 1.043303,-1.725739 0.368482,-0.560187 0.759571,-1.104649 1.157925,-1.643933 0.404148,-0.53625 0.804336,-1.075733 1.230413,-1.595014 0.424688,-0.511723 0.857956,-1.016572 1.319485,-1.495724 0.448074,-0.464048 0.898083,-0.926733 1.387075,-1.348518 0.502177,-0.447141 1.025284,-0.868775 1.571289,-1.261568 0.52133,-0.369853 1.054997,-0.723416 1.613368,-1.035378 0.578562,-0.331115 1.164358,-0.651684 1.772793,-0.925118 0.620578,-0.272952 1.245423,-0.537181 1.8879,-0.75511 0.644658,-0.210519 1.292268,-0.412859 1.947281,-0.588987 0.681688,-0.173167 1.368896,-0.325247 2.066409,-0.420221 0.705011,-0.09508 1.413333,-0.163725 2.124329,-0.193779 0.719651,-0.02273 1.440066,-0.02331 2.15792,0.04175 0.757897,0.07004 1.512655,0.172638 2.257215,0.33319 0.72627,0.166108 1.45003,0.347332 2.14908,0.608441 0.71321,0.263472 1.41447,0.558869 2.09256,0.903748 0.68592,0.353737 1.36061,0.730697 1.9947,1.172284 0.6518,0.459129 1.28414,0.946655 1.85761,1.502349 0.5466,0.531493 1.07921,1.078529 1.57802,1.655432 0.50736,0.599802 0.99617,1.216253 1.4445,1.861762 0.43704,0.637603 0.87069,1.278617 1.25092,1.952331 0.40177,0.687491 0.78905,1.38321 1.15284,2.09165 0.36238,0.711555 0.72476,1.423424 1.05938,2.148589 0.34347,0.735243 0.67644,1.475319 1.01252,2.213954 0.33082,0.762108 0.65658,1.526707 0.96089,2.299835 0.29368,0.771364 0.58313,1.544669 0.84305,2.328196 0.2518,0.756364 0.48017,1.519666 0.6612,2.296422 0.17063,0.708337 0.34673,1.415478 0.48907,2.130276 0.14138,0.73627 0.27234,1.474793 0.38459,2.216076 0.10348,0.718878 0.20073,1.439598 0.26614,2.162972 0.0454,0.644982 0.0983,1.289752 0.11861,1.936182 0.0245,0.61938 0.0529,1.23863 0.0726,1.85819 0.0109,0.61484 0.007,1.22979 0.0107,1.84471 0.002,0.55403 0.004,1.10806 0.008,1.66208 0.004,0.46378 0.0128,0.92751 0.0159,1.3913 0.004,0.35143 0.007,0.70288 0.0195,1.05414 0,3.96001 -5.60031,3.96001 -5.60031,0 z"
       inkscape:connector-curvature="0"
       sodipodi:nodetypes="ccccccccccccccccccccccccccccccccccccccccccccccccccccccccccccccccccccccccccccccccccccccccccccccccccccccccccccccccccccccccccccccccccccccccccccccccccccccccccccccccccc" />
    <path
       style="opacity:1;fill:#ff0000;fill-opacity:1;stroke:none;stroke-width:0.5;stroke-linecap:round;stroke-linejoin:round;stroke-miterlimit:4;stroke-dasharray:none;stroke-dashoffset:0;stroke-opacity:1;paint-order:markers fill stroke"
       id="path894"
       d="m 113.76106,107.59987 c 0.13036,-0.29908 0.26284,-0.59728 0.40601,-0.89046 0.19937,-0.43031 0.43116,-0.84416 0.64482,-1.26723 0.24426,-0.49102 0.51842,-0.96572 0.79695,-1.43783 0.29067,-0.47659 0.57821,-0.95505 0.86788,-1.43223 0.32927,-0.5267 0.66605,-1.0487 1.01576,-1.56204 0.3763,-0.54769 0.76562,-1.086247 1.17234,-1.611739 0.42582,-0.54447 0.8772,-1.067596 1.33849,-1.582073 0.50014,-0.565169 1.05023,-1.080783 1.62499,-1.568556 0.59066,-0.498131 1.22988,-0.933905 1.86724,-1.36911 0.65798,-0.455218 1.34893,-0.858803 2.04726,-1.248103 0.72832,-0.383509 1.47316,-0.735314 2.22332,-1.073817 0.75249,-0.338434 1.52361,-0.632121 2.30041,-0.909196 0.76028,-0.269009 1.53324,-0.499366 2.30963,-0.716624 0.76238,-0.211603 1.53279,-0.392027 2.30532,-0.562147 0.76263,-0.166579 1.53029,-0.308289 2.29927,-0.441904 0.76206,-0.13135 1.52729,-0.242962 2.29333,-0.348208 0.7726,-0.113458 1.55007,-0.184097 2.32818,-0.245903 0.78734,-0.06568 1.57689,-0.064 2.36569,-0.03593 0.75415,0.02763 1.50272,0.120843 2.2483,0.232391 0.74807,0.10531 1.47889,0.290185 2.20389,0.498031 0.70029,0.199268 1.38145,0.454768 2.05361,0.732943 0.62794,0.266909 1.23869,0.57099 1.84624,0.88079 0.60053,0.309613 1.17449,0.666555 1.74557,1.026581 0.57156,0.381548 1.12778,0.785606 1.67159,1.205595 0.54252,0.423236 1.06469,0.870477 1.57141,1.335725 0.51512,0.481481 1.02277,0.969733 1.50494,1.484339 0.4749,0.491011 0.91017,1.017744 1.34263,1.545873 0.42475,0.531741 0.81569,1.089369 1.21091,1.643116 0.41136,0.585706 0.79123,1.192586 1.15131,1.810896 0.37193,0.62709 0.70527,1.27521 1.01783,1.93354 0.3197,0.67976 0.58979,1.38086 0.84322,2.0875 0.24819,0.69899 0.45677,1.41091 0.65263,2.12604 0.19682,0.72581 0.36548,1.45865 0.5063,2.19728 0.13856,0.73667 0.24362,1.47844 0.31001,2.22495 0.0671,0.75748 0.0507,1.51799 0.0283,2.27695 -0.0281,0.74951 -0.1158,1.49548 -0.21611,2.23828 -0.0948,0.70182 -0.21239,1.4006 -0.36295,2.09259 -0.1662,0.69335 -0.37013,1.37693 -0.58192,2.05749 -0.21343,0.68819 -0.48458,1.35693 -0.76505,2.02006 -0.26441,0.64753 -0.57191,1.27605 -0.88018,1.90347 -0.32644,0.65797 -0.68801,1.29783 -1.06391,1.92859 -0.35695,0.61576 -0.74466,1.2128 -1.12912,1.81154 -0.42167,0.65325 -0.88364,1.27879 -1.3385,1.90891 -0.4654,0.6287 -0.93295,1.25585 -1.41781,1.86973 -0.50506,0.63352 -1.02792,1.25255 -1.55633,1.86662 -0.51459,0.59672 -1.03918,1.18436 -1.57052,1.76618 -0.56065,0.61393 -1.13024,1.21917 -1.71968,1.80553 -0.61453,0.63012 -1.25408,1.23499 -1.88947,1.84385 -0.64683,0.62288 -1.30347,1.23647 -1.97347,1.83444 -0.64984,0.59831 -1.31962,1.17413 -1.99087,1.74811 -0.70094,0.59167 -1.41391,1.16902 -2.12941,1.74295 -0.72495,0.57334 -1.45179,1.14474 -2.18969,1.70136 -0.72199,0.55164 -1.45084,1.0946 -2.18954,1.62368 -0.68602,0.50268 -1.37279,1.00421 -2.07217,1.4882 -0.66171,0.46531 -1.32952,0.92186 -1.99599,1.38029 -0.65655,0.47367 -1.33306,0.91855 -2.01228,1.35875 -0.65416,0.42634 -1.30299,0.86084 -1.95507,1.2904 -0.64625,0.42425 -1.29691,0.84171 -1.94665,1.26058 -0.67438,0.41974 -1.33986,0.8536 -2.01468,1.27264 -0.6944,0.43072 -1.40217,0.8393 -2.10029,1.26382 -0.70734,0.41752 -1.40883,0.84495 -2.11722,1.26068 -0.75666,0.44163 -1.49531,0.9125 -2.24137,1.37149 -0.70461,0.44418 -1.41536,0.87852 -2.12467,1.31515 -0.73087,0.46072 -1.47252,0.90417 -2.22317,1.33183 -0.74566,0.44193 -1.49993,0.86896 -2.25373,1.29681 -0.76293,0.42608 -1.5276,0.84902 -2.292,1.2725 -0.77401,0.4306 -1.55479,0.84865 -2.33913,1.26008 -0.7185,0.38572 -1.4349,0.77511 -2.14905,1.1688 -0.70558,0.3774 -1.41039,0.75557 -2.10873,1.14619 -0.69644,0.39322 -1.4109,0.75336 -2.10715,1.14676 -0.72993,0.41528 -1.47062,0.81118 -2.20514,1.21822 -0.76175,0.4273 -1.51951,0.8616 -2.28001,1.29112 -0.740427,0.42897 -1.454713,0.90371 -2.220844,1.28488 -0.782482,0.39656 -1.577122,0.76821 -2.362225,1.15944 -0.806088,0.39529 -1.616468,0.7821 -2.427919,1.16635 -0.7757,0.35318 -1.54206,0.72609 -2.313162,1.08914 -0.765348,0.35268 -1.534083,0.69795 -2.299865,1.04974 -0.780371,0.35898 -1.56964,0.69789 -2.360172,1.0337 -0.77919,0.32017 -1.556209,0.64575 -2.336579,0.96305 -0.759229,0.30415 -1.518633,0.60768 -2.280858,0.9043 -0.734908,0.28289 -1.468955,0.56792 -2.205609,0.84632 -0.703757,0.26067 -1.405063,0.52791 -2.105781,0.79665 -0.655503,0.24633 -1.306108,0.50662 -1.953074,0.77459 -0.642761,0.26409 -1.288852,0.52023 -1.929871,0.78854 -0.589329,0.26193 -1.175087,0.53181 -1.765412,0.79149 -0.570596,0.24936 -1.128021,0.52635 -1.690352,0.79335 -0.5884,0.26356 -1.165367,0.55134 -1.749258,0.8245 -0.576726,0.25335 -1.142332,0.53067 -1.714593,0.79372 -0.570053,0.2872 -1.160873,0.52828 -1.746857,0.77998 -0.396828,0.16735 -0.194662,0.0835 -0.606588,0.25128 -3.604969,1.46718 -3.792224,0.86738 -0.414683,-1.06669 v 0 c 0.321004,-0.18368 0.1581,-0.0892 0.488591,-0.28359 0.50611,-0.29967 1.014338,-0.5957 1.501462,-0.92612 0.522485,-0.32976 1.037283,-0.67168 1.565439,-0.99248 0.533609,-0.34149 1.059238,-0.69539 1.598375,-1.02827 0.567222,-0.36819 1.127242,-0.7475 1.707299,-1.09563 0.584291,-0.35484 1.161537,-0.7212 1.748226,-1.07216 0.607688,-0.34989 1.218851,-0.69371 1.828053,-1.04095 0.647251,-0.36986 1.294427,-0.74056 1.953676,-1.0887 0.665155,-0.3594 1.332109,-0.71547 2.000354,-1.06908 0.678076,-0.36534 1.353283,-0.73593 2.030902,-1.1021 0.693297,-0.38177 1.383517,-0.76902 2.074938,-1.15416 0.70521,-0.40123 1.403106,-0.81521 2.107525,-1.21782 0.692615,-0.41153 1.385689,-0.82236 2.066594,-1.25318 0.698481,-0.44362 1.40055,-0.88149 2.101193,-1.32164 0.714453,-0.46132 1.480128,-0.83286 2.230643,-1.23287 0.751258,-0.41251 1.501378,-0.82742 2.245325,-1.25295 0.760564,-0.44266 1.532906,-0.86435 2.291752,-1.30996 0.759064,-0.43947 1.512742,-0.88824 2.278145,-1.31674 0.766347,-0.42993 1.527516,-0.86897 2.29259,-1.30116 0.72749,-0.41016 1.45977,-0.81166 2.18657,-1.22304 0.70449,-0.39484 1.41733,-0.77438 2.12533,-1.16283 0.7107,-0.39387 1.42574,-0.77943 2.14371,-1.15988 0.74679,-0.40653 1.49461,-0.8111 2.2465,-1.20815 0.7452,-0.38871 1.48638,-0.7849 2.22105,-1.1932 0.74744,-0.41611 1.49532,-0.83134 2.24452,-1.24423 0.74812,-0.42634 1.49511,-0.85448 2.23644,-1.29256 0.6993,-0.40341 1.38924,-0.82271 2.07183,-1.25379 0.71344,-0.43861 1.43273,-0.86758 2.14386,-1.30994 0.75992,-0.46191 1.51308,-0.93489 2.27417,-1.3949 0.69683,-0.42959 1.39811,-0.85199 2.1015,-1.27077 0.67342,-0.40396 1.35121,-0.80066 2.01781,-1.21591 0.64506,-0.40978 1.28933,-0.82069 1.93686,-1.22649 0.6417,-0.42195 1.2923,-0.8301 1.93245,-1.25444 0.66222,-0.43125 1.3222,-0.86586 1.98274,-1.29967 0.64103,-0.41494 1.27304,-0.8433 1.89713,-1.28334 0.66417,-0.45179 1.32756,-0.90471 1.98768,-1.36239 0.67928,-0.46518 1.34033,-0.95577 2.0095,-1.43524 0.69903,-0.49295 1.38883,-0.9993 2.06938,-1.51744 0.69668,-0.52868 1.38226,-1.07217 2.06979,-1.61263 0.66902,-0.53435 1.32951,-1.07926 1.98271,-1.63282 0.63922,-0.54959 1.28046,-1.097 1.90149,-1.66729 0.62389,-0.56246 1.24193,-1.13182 1.8468,-1.71469 0.60205,-0.57439 1.1949,-1.15844 1.77605,-1.75399 0.52437,-0.53746 1.03996,-1.08373 1.54527,-1.63912 0.49863,-0.55263 0.99476,-1.10744 1.48159,-1.67052 0.47721,-0.54805 0.94509,-1.10418 1.39328,-1.67634 0.43524,-0.55381 0.855,-1.11924 1.27582,-1.68405 0.39356,-0.54656 0.78771,-1.0926 1.15487,-1.6575 0.35327,-0.55778 0.712,-1.11261 1.03916,-1.68633 0.30145,-0.49937 0.58476,-1.01034 0.8428,-1.53352 0.26147,-0.53051 0.52452,-1.06104 0.74584,-1.60997 0.21234,-0.50703 0.42477,-1.01541 0.58459,-1.54199 0.16833,-0.52352 0.32341,-1.05187 0.45612,-1.58557 0.12258,-0.54569 0.21157,-1.09857 0.28961,-1.65221 0.0756,-0.54834 0.14406,-1.09822 0.17315,-1.65132 0.0149,-0.55161 0.0324,-1.10448 -0.0153,-1.65514 -0.0444,-0.56395 -0.12757,-1.12313 -0.23102,-1.67922 -0.10859,-0.59192 -0.24151,-1.17843 -0.40201,-1.75864 -0.15914,-0.57985 -0.32797,-1.15729 -0.529,-1.72423 -0.19247,-0.53734 -0.39663,-1.07087 -0.63865,-1.5882 -0.24569,-0.51996 -0.50956,-1.03106 -0.80753,-1.52332 -0.27341,-0.47197 -0.56735,-0.9315 -0.87802,-1.37986 -0.32495,-0.4566 -0.64894,-0.91439 -0.994,-1.35611 -0.35532,-0.43689 -0.71168,-0.87376 -1.10389,-1.27855 -0.37736,-0.4092 -0.78573,-0.786146 -1.1899,-1.168511 -0.3951,-0.358042 -0.7992,-0.70529 -1.21904,-1.034267 -0.40948,-0.313224 -0.82411,-0.619673 -1.25085,-0.909111 -0.43171,-0.271666 -0.8648,-0.541867 -1.31448,-0.783148 -0.47553,-0.243232 -0.95116,-0.486482 -1.44145,-0.699119 -0.47969,-0.197417 -0.96117,-0.390144 -1.46061,-0.532961 -0.49646,-0.140589 -0.99435,-0.274685 -1.50592,-0.349753 -0.54311,-0.08037 -1.08735,-0.155273 -1.6362,-0.183224 -0.57911,-0.02101 -1.1587,-0.03026 -1.73733,0.01085 -0.67328,0.05294 -1.34705,0.105069 -2.01533,0.205473 -0.70209,0.09645 -1.40346,0.198601 -2.10194,0.318833 -0.689,0.119566 -1.37687,0.246169 -2.06023,0.395015 -0.67326,0.147839 -1.34475,0.304329 -2.0093,0.487903 -0.65489,0.182387 -1.30703,0.375335 -1.9486,0.600757 -0.63558,0.225139 -1.26687,0.46314 -1.88239,0.739188 -0.60995,0.275756 -1.21645,0.561083 -1.80921,0.872212 -0.54878,0.305721 -1.08815,0.628997 -1.60667,0.984067 -0.48416,0.335188 -0.97499,0.664086 -1.42268,1.047916 -0.3867,0.32546 -0.74908,0.67883 -1.08464,1.05705 -0.36911,0.40735 -0.73003,0.82185 -1.06922,1.25466 -0.33928,0.44362 -0.66555,0.89704 -0.98079,1.35805 -0.29681,0.43475 -0.56716,0.88735 -0.84942,1.33157 -0.2718,0.44462 -0.5383,0.89255 -0.80297,1.34144 -0.21232,0.37144 -0.42646,0.74194 -0.61628,1.12559 -0.17263,0.35068 -0.35486,0.69671 -0.51354,1.0541 -0.0967,0.23952 -0.1982,0.47714 -0.29009,0.71861 -1.47344,3.6836 -6.68283,1.59984 -5.20939,-2.08376 z"
       inkscape:connector-curvature="0"
       sodipodi:nodetypes="ccccccccccccccccccccccccccccccccccccccccccccccccccccccccccccccccccccccccccccccccccccccccccccccccccccccccccccccccccccccccccccccccccccccccccccccccccccccccccccccccccccccccccccccccccccccccc" />
  </g>
</svg>
