<?xml version="1.0" encoding="UTF-8" standalone="no"?>
<!-- Created with Inkscape (http://www.inkscape.org/) -->

<svg
   xmlns:dc="http://purl.org/dc/elements/1.1/"
   xmlns:cc="http://creativecommons.org/ns#"
   xmlns:rdf="http://www.w3.org/1999/02/22-rdf-syntax-ns#"
   xmlns:svg="http://www.w3.org/2000/svg"
   xmlns="http://www.w3.org/2000/svg"
   xmlns:sodipodi="http://sodipodi.sourceforge.net/DTD/sodipodi-0.dtd"
   xmlns:inkscape="http://www.inkscape.org/namespaces/inkscape"
   width="48.937145mm"
   height="19.514561mm"
   viewBox="0 0 48.937145 19.51456"
   version="1.1"
   id="svg8"
   inkscape:version="0.92.4 (5da689c313, 2019-01-14)"
   sodipodi:docname="logo.svg">
  <defs
     id="defs2" />
  <sodipodi:namedview
     id="base"
     pagecolor="#ffffff"
     bordercolor="#666666"
     borderopacity="1.0"
     inkscape:pageopacity="0.0"
     inkscape:pageshadow="2"
     inkscape:zoom="3.959798"
     inkscape:cx="58.088545"
     inkscape:cy="32.739829"
     inkscape:document-units="mm"
     inkscape:current-layer="layer1"
     showgrid="false"
     fit-margin-top="0"
     fit-margin-left="0"
     fit-margin-right="0"
     fit-margin-bottom="0"
     inkscape:window-width="1920"
     inkscape:window-height="1057"
     inkscape:window-x="-8"
     inkscape:window-y="-8"
     inkscape:window-maximized="1" />
  <metadata
     id="metadata5">
    <rdf:RDF>
      <cc:Work
         rdf:about="">
        <dc:format>image/svg+xml</dc:format>
        <dc:type
           rdf:resource="http://purl.org/dc/dcmitype/StillImage" />
        <dc:title></dc:title>
      </cc:Work>
    </rdf:RDF>
  </metadata>
  <g
     inkscape:label="Layer 1"
     inkscape:groupmode="layer"
     id="layer1"
     transform="translate(-91.701241,-133.60867)">
    <path
       style="fill:#ffffff;stroke-width:0.08466667"
       d="m 92.317561,152.97476 c 0.0233,-0.0815 0.15559,-0.52916 0.29388,-0.99483 0.1383,-0.46567 0.40648,-1.38007 0.59596,-2.032 0.18949,-0.65193 0.59321,-2.0315 0.89716,-3.0657 0.30395,-1.0342 0.55264,-1.90275 0.55264,-1.9301 0,-0.0274 0.39052,-0.47658 0.86783,-0.9983 0.47731,-0.52171 0.91751,-1.01209 0.97823,-1.08974 0.0971,-0.12414 -0.18597,-0.46637 -2.34581,-2.83633 l -2.45621,-2.69516 2.43048,-0.0251 2.43048,-0.0251 0.80433,0.87148 c 0.44239,0.47932 1.01534,1.09404 1.27324,1.36605 l 0.46891,0.49456 1.251399,-1.36215 1.25141,-1.36215 h 0.71385 0.71386 v 2.05591 2.0559 l -0.68425,0.7381 -0.68424,0.73809 0.68424,0.7381 0.68425,0.7381 v 1.71723 1.71724 l -0.91017,-0.003 -0.91017,-0.003 -0.95932,-1.05515 c -0.527619,-0.58033 -0.991609,-1.05515 -1.031089,-1.05515 -0.0395,0 -1.59994,1.6764 -3.46771,3.72534 -1.86777,2.04893 -3.41612,3.72533 -3.44078,3.72533 -0.0247,0 -0.0257,-0.0667 -0.002,-0.14817 z m 42.717809,-2.49263 -2.82851,-2.64233 -0.0423,-3.30627 -0.0423,-3.30627 -1.2925,-0.0423 -1.29249,-0.0423 1.31366,-1.31131 1.31366,-1.31131 v -0.61486 -0.61486 h 4.29381 c 3.61926,0 4.27433,0.0181 4.16983,0.11485 -0.0682,0.0632 -1.02842,0.95852 -2.13386,1.98967 -2.00389,1.86923 -2.01102,1.87482 -2.39183,1.87482 h -0.38195 v 1.88097 1.88097 l 0.80238,2.9662 c 0.4413,1.6314 0.9336,3.44227 1.094,4.02413 0.16039,0.58187 0.28158,1.06799 0.2693,1.08027 -0.0123,0.0123 -1.29515,-1.16673 -2.85084,-2.62001 z m -31.57284,-5.71915 v -3.02913 l 1.88452,-1.88313 c 1.03649,-1.03572 1.9131,-1.88312 1.94802,-1.88312 0.0349,0 0.0537,2.20027 0.0417,4.8895 l -0.0219,4.8895 -1.92616,0.0228 -1.92617,0.0228 z m 4.318,-2.16059 v -5.18654 l 1.905,-1.90359 1.905,-1.90359 v 7.09013 7.09013 h -1.905 -1.905 z m 4.23333,-0.0628 v -5.24934 h 4.65667 4.65667 v 3.429 3.429 h -2.921 -2.921 v 0.254 0.254 h 2.921 2.921 v 1.56634 1.56633 h -4.65667 -4.65667 z m 5.88434,-1.69334 v -0.29633 l -1.2065,-0.0235 -1.2065,-0.0235 v 0.34331 0.34332 l 1.2065,-0.0235 1.2065,-0.0235 z m 3.85233,1.69334 v -5.24934 h 1.33912 1.33912 l 1.81472,1.913 1.81471,1.913 0.0228,-1.913 0.0228,-1.913 h 1.81874 1.81875 v 0.53001 0.53 l -1.60973,1.60783 -1.60972,1.60783 1.58855,0.0423 1.58856,0.0423 v 3.048 3.048 l -1.651,0.0203 -1.651,0.0203 -1.35466,-1.45593 -1.35467,-1.45593 -0.0232,1.45684 -0.0232,1.45684 h -1.94534 -1.94533 z m -18.288,-3.429 v -1.82034 h 1.84076 1.84076 l -1.81885,1.82034 c -1.00038,1.00118 -1.82872,1.82033 -1.84077,1.82033 -0.012,0 -0.0219,-0.81915 -0.0219,-1.82033 z"
       id="path839"
       inkscape:connector-curvature="0" />
  </g>
</svg>
