<?xml version="1.0" encoding="UTF-8"?>
<!-- Created with Inkscape (http://www.inkscape.org/) -->
<svg width="298.84mm" height="110.71mm" version="1.1" viewBox="0 0 298.84 110.71" xmlns="http://www.w3.org/2000/svg">
 <defs>
  <clipPath id="clipPath244">
   <rect x="6.2067" y="128" width="296.81" height="20.175" fill="#fff"/>
  </clipPath>
  <clipPath id="clipPath249">
   <rect x="6.1756" y="151.09" width="298.87" height="32.206" fill="#fff"/>
  </clipPath>
  <clipPath id="clipPath254">
   <rect x="6.0824" y="186.06" width="298.9" height="32.942" fill="#fff"/>
  </clipPath>
  <clipPath id="clipPath259">
   <rect x="6.1268" y="221.17" width="299.01" height="17.64" fill="#fff"/>
  </clipPath>
 </defs>
 <g transform="translate(-6.1955 -128.01)">
  <g clip-path="url(#clipPath244)" fill="#f60">
   <path d="m6.2652 128.35v19.643h7.9582v-13.628h2.8525c3.266 0 5.7533 0.79926 7.4621 2.3978 1.7088 1.5985 2.5632 3.9274 2.5632 6.9867 0 1.6176-0.24103 3.0308-0.7183 4.2437h8.4718c0.29976-1.3094 0.45268-2.7227 0.45268-4.2437 0-2.3013-0.3514-4.3615-1.0542-6.1805s-1.7777-3.4244-3.2246-4.8162c-1.6399-1.5985-3.6105-2.7285-5.9118-3.39-2.2875-0.67524-5.774-1.0129-10.459-1.0129z" style="font-feature-settings:normal;font-variant-caps:normal;font-variant-ligatures:normal;font-variant-numeric:normal"/>
   <path d="m72.723 128.25c-4.9472 0-8.8332 1.4194-11.658 4.2581-2.8112 2.8388-4.2168 6.7593-4.2168 11.762 0 1.3154 0.10065 2.5538 0.29611 3.7197h8.291c-0.23918-1.111-0.36018-2.3498-0.36018-3.7197 0-3.2522 0.66835-5.774 2.005-7.5654 1.3367-1.7914 3.2177-2.6872 5.6431-2.6872 2.4391 0 4.327 0.89573 5.6637 2.6872 1.3367 1.7914 2.005 4.3133 2.005 7.5654 0 1.3699-0.12049 2.6087-0.35967 3.7197h8.2698c0.19546-1.1659 0.2961-2.4043 0.2961-3.7197 0-5.0023-1.4056-8.9228-4.2168-11.762-2.8112-2.8388-6.6973-4.2581-11.658-4.2581z" style="font-feature-settings:normal;font-variant-caps:normal;font-variant-ligatures:normal;font-variant-numeric:normal"/>
   <path d="m110.14 128.44v19.547h7.5448v-11.258l4.8106 11.258h9.6439l4.8106-11.258v11.258h7.5241v-19.547h-10.108l-7.0693 16.516-7.028-16.516z" style="font-feature-settings:normal;font-variant-caps:normal;font-variant-ligatures:normal;font-variant-numeric:normal"/>
   <path d="m166.01 128.54v19.45h7.9582v-19.45z" style="font-feature-settings:normal;font-variant-caps:normal;font-variant-ligatures:normal;font-variant-numeric:normal"/>
   <path d="m195.51 128.63v19.354h7.5448v-9.6594l5.1222 9.6594h6.4844l-10.263-19.354zm20.112 0v19.354h7.5448v-19.354z" style="font-feature-settings:normal;font-variant-caps:normal;font-variant-ligatures:normal;font-variant-numeric:normal"/>
   <path d="m244.71 128.73v19.257h7.9582v-19.257z" style="font-feature-settings:normal;font-variant-caps:normal;font-variant-ligatures:normal;font-variant-numeric:normal"/>
   <path d="m274.21 128.83v19.161h7.9582v-0.45372l0.45839 0.45372h9.9782l-4.5868-4.5465 14.862-14.614h-9.2398l-11.472 11.265v-11.265z" style="font-feature-settings:normal;font-variant-caps:normal;font-variant-ligatures:normal;font-variant-numeric:normal"/>
  </g>
  <g clip-path="url(#clipPath249)" fill="#f60">
   <path d="m14.167 157.59v18.831h2.8525q4.8783 0 7.4414-2.4185 2.5838-2.4185 2.5838-7.028 0-4.5889-2.5632-6.9867-2.5632-2.3978-7.4621-2.3978zm-7.9582-6.0151h8.3923q7.028 0 10.459 1.0129 3.452 0.99218 5.9118 3.39 2.1704 2.0877 3.2246 4.8162 1.0542 2.7285 1.0542 6.1805 0 3.4933-1.0542 6.2425-1.0542 2.7285-3.2246 4.8162-2.4805 2.3978-5.9531 3.4106-3.4727 0.99218-10.418 0.99218h-8.3923z" style="font-feature-settings:normal;font-variant-caps:normal;font-variant-ligatures:normal;font-variant-numeric:normal"/>
   <path d="m72.667 157.24q-3.638 0-5.6431 2.6872-2.005 2.6872-2.005 7.5654 0 4.8576 2.005 7.5448 2.005 2.6872 5.6431 2.6872 3.6587 0 5.6637-2.6872 2.005-2.6872 2.005-7.5448 0-4.8783-2.005-7.5654-2.005-2.6872-5.6637-2.6872zm0-5.7671q7.4414 0 11.658 4.2581 4.2168 4.2581 4.2168 11.762 0 7.4827-4.2168 11.741-4.2168 4.2581-11.658 4.2581-7.4207 0-11.658-4.2581-4.2168-4.2581-4.2168-11.741 0-7.5034 4.2168-11.762 4.2375-4.2581 11.658-4.2581z" style="font-feature-settings:normal;font-variant-caps:normal;font-variant-ligatures:normal;font-variant-numeric:normal"/>
   <path d="m110.08 151.67h10.129l7.028 16.516 7.0693-16.516h10.108v30.861h-7.5241v-22.572l-7.1107 16.64h-5.0436l-7.1107-16.64v22.572h-7.5448z" style="font-feature-settings:normal;font-variant-caps:normal;font-variant-ligatures:normal;font-variant-numeric:normal"/>
   <path d="m165.96 151.76h7.9582v30.861h-7.9582z" style="font-feature-settings:normal;font-variant-caps:normal;font-variant-ligatures:normal;font-variant-numeric:normal"/>
   <path d="m195.46 151.86h8.8883l11.224 21.167v-21.167h7.5448v30.861h-8.8883l-11.224-21.167v21.167h-7.5448z" style="font-feature-settings:normal;font-variant-caps:normal;font-variant-ligatures:normal;font-variant-numeric:normal"/>
   <path d="m244.65 151.96h7.9582v30.861h-7.9582z" style="font-feature-settings:normal;font-variant-caps:normal;font-variant-ligatures:normal;font-variant-numeric:normal"/>
   <path d="m274.15 152.05h7.9582v11.265l11.472-11.265h9.2398l-14.862 14.614 16.392 16.247h-9.9632l-12.278-12.154v12.154h-7.9582z" style="font-feature-settings:normal;font-variant-caps:normal;font-variant-ligatures:normal;font-variant-numeric:normal"/>
  </g>
  <g clip-path="url(#clipPath254)" fill="#f60">
   <path d="m6.1936 187.48h13.208q5.8911 0 9.033 2.6252 3.1626 2.6045 3.1626 7.4414 0 4.8576-3.1626 7.4828-3.1419 2.6045-9.033 2.6045h-5.2503v10.707h-7.9582zm7.9582 5.7671v8.6196h4.4028q2.3151 0 3.576-1.1162 1.2609-1.1369 1.2609-3.2039 0-2.067-1.2609-3.1833-1.2609-1.1162-3.576-1.1162z" style="font-feature-settings:normal;font-variant-caps:normal;font-variant-ligatures:normal;font-variant-numeric:normal"/>
   <path d="m37.199 187.48h7.9582v30.861h-7.9582z" style="font-feature-settings:normal;font-variant-caps:normal;font-variant-ligatures:normal;font-variant-numeric:normal"/>
   <path d="m67.089 192.69q-3.638 0-5.6431 2.6872-2.005 2.6872-2.005 7.5654 0 4.8576 2.005 7.5448 2.005 2.6872 5.6431 2.6872 3.6587 0 5.6637-2.6872 2.005-2.6872 2.005-7.5448 0-4.8782-2.005-7.5654-2.005-2.6872-5.6637-2.6872zm0-5.7671q7.4414 0 11.658 4.2581 4.2168 4.2581 4.2168 11.762 0 7.4828-4.2168 11.741-4.2168 4.2581-11.658 4.2581-7.4207 0-11.658-4.2581-4.2168-4.2581-4.2168-11.741 0-7.5034 4.2168-11.762 4.2375-4.2581 11.658-4.2581z" style="font-feature-settings:normal;font-variant-caps:normal;font-variant-ligatures:normal;font-variant-numeric:normal"/>
   <path d="m85.279 187.48h28.443v6.0151h-10.232v24.846h-7.9582v-24.846h-10.253z" style="font-feature-settings:normal;font-variant-caps:normal;font-variant-ligatures:normal;font-variant-numeric:normal"/>
   <path d="m129.12 201.17q2.5011 0 3.576-0.93017 1.0955-0.93018 1.0955-3.0592 0-2.1084-1.0955-3.0179-1.0749-0.90951-3.576-0.90951h-3.3486v7.9168zm-3.3486 5.4984v11.679h-7.9582v-30.861h12.154q6.0978 0 8.9297 2.0464 2.8525 2.0464 2.8525 6.4699 0 3.0592-1.4883 5.023-1.4676 1.9637-4.4442 2.8939 1.633 0.37207 2.9146 1.695 1.3022 1.3022 2.6252 3.9688l4.3202 8.7643h-8.4749l-3.762-7.6688q-1.1369-2.3151-2.3151-3.1626-1.1576-0.8475-3.1006-0.8475z" style="font-feature-settings:normal;font-variant-caps:normal;font-variant-ligatures:normal;font-variant-numeric:normal"/>
   <path d="m164.49 192.69q-3.638 0-5.6431 2.6872-2.005 2.6872-2.005 7.5654 0 4.8576 2.005 7.5448 2.005 2.6872 5.6431 2.6872 3.6587 0 5.6637-2.6872 2.005-2.6872 2.005-7.5448 0-4.8782-2.005-7.5654-2.005-2.6872-5.6637-2.6872zm0-5.7671q7.4414 0 11.658 4.2581 4.2168 4.2581 4.2168 11.762 0 7.4828-4.2168 11.741-4.2168 4.2581-11.658 4.2581-7.4207 0-11.658-4.2581-4.2168-4.2581-4.2168-11.741 0-7.5034 4.2168-11.762 4.2375-4.2581 11.658-4.2581z" style="font-feature-settings:normal;font-variant-caps:normal;font-variant-ligatures:normal;font-variant-numeric:normal"/>
   <path d="m183.73 187.48h7.6274l5.333 22.428 5.2917-22.428h7.6688l5.2917 22.428 5.333-22.428h7.5654l-7.276 30.861h-9.1777l-5.6017-23.461-5.5397 23.461h-9.1777z" style="font-feature-settings:normal;font-variant-caps:normal;font-variant-ligatures:normal;font-variant-numeric:normal"/>
   <path d="m254.55 188.45v6.5319q-2.5425-1.1369-4.9609-1.7157-2.4185-0.57877-4.5682-0.57877-2.8525 0-4.2168 0.78548-1.3642 0.78548-1.3642 2.4391 0 1.2402 0.9095 1.943 0.93018 0.68213 3.3486 1.1782l3.39 0.68213q5.147 1.0335 7.3174 3.1419t2.1704 5.9945q0 5.1056-3.0386 7.6068-3.0179 2.4805-9.2398 2.4805-2.9352 0-5.8911-0.5581-2.9559-0.55811-5.9118-1.6536v-6.7179q2.9559 1.571 5.7051 2.3771 2.7699 0.78549 5.333 0.78549 2.6045 0 3.9894-0.86817 1.3849-0.86816 1.3849-2.4805 0-1.4469-0.95085-2.2324-0.93017-0.78548-3.7414-1.4056l-3.0799-0.68213q-4.6302-0.99218-6.7799-3.1626-2.1291-2.1704-2.1291-5.8498 0-4.6095 2.9766-7.09t8.5576-2.4805q2.5425 0 5.2296 0.39274 2.6872 0.37207 5.5604 1.1369z" style="font-feature-settings:normal;font-variant-caps:normal;font-variant-ligatures:normal;font-variant-numeric:normal"/>
   <path d="m263.58 187.48h7.9582v11.265l11.472-11.265h9.2397l-14.862 14.614 16.392 16.247h-9.9632l-12.278-12.154v12.154h-7.9582z" style="font-feature-settings:normal;font-variant-caps:normal;font-variant-ligatures:normal;font-variant-numeric:normal"/>
   <path d="m296.41 187.48h7.9582v30.861h-7.9582z" style="font-feature-settings:normal;font-variant-caps:normal;font-variant-ligatures:normal;font-variant-numeric:normal"/>
  </g>
  <g clip-path="url(#clipPath259)">
   <path d="m6.1936 221.91v16.203h7.9582v-10.707h5.2503c3.9274 0 6.9384-0.86817 9.033-2.6045 0.97037-0.80547 1.7149-1.7706 2.2386-2.8913zm31.006 0v16.203h7.9582v-16.203zm14.029 0c-0.0083 0.26522-0.01447 0.53197-0.01447 0.80357 0 4.9885 1.4056 8.9021 4.2168 11.741 2.825 2.8388 6.711 4.2581 11.658 4.2581 4.9609 0 8.847-1.4194 11.658-4.2581 2.8112-2.8388 4.2168-6.7524 4.2168-11.741 0-0.2716-0.0062-0.53835-0.01447-0.80357h-8.2078c0.0095 0.26336 0.01602 0.52985 0.01602 0.80357 0 3.2384-0.66835 5.7533-2.005 7.5448-1.3367 1.7915-3.2246 2.6872-5.6637 2.6872-2.4253 0-4.3064-0.89572-5.6431-2.6872-1.3367-1.7914-2.005-4.3064-2.005-7.5448 0-0.27371 0.0066-0.54021 0.01602-0.80357zm44.303 0v16.203h7.9582v-16.203zm22.283 0v16.203h7.9582v-11.679h2.2531c1.2954 0 2.3289 0.2825 3.1006 0.84749 0.78548 0.565 1.5572 1.6192 2.3151 3.1626l3.762 7.6688h8.4749l-4.3202-8.7643c-0.88194-1.7777-1.757-3.1006-2.6252-3.9688-0.85438-0.88194-1.8259-1.4469-2.9146-1.695 1.3688-0.42777 2.4982-1.0194 3.3884-1.7751zm30.814 0c-8e-3 0.26522-0.0145 0.53197-0.0145 0.80357 0 4.9885 1.4056 8.9021 4.2168 11.741 2.825 2.8388 6.711 4.2581 11.658 4.2581 4.9609 0 8.847-1.4194 11.658-4.2581 2.8112-2.8388 4.2168-6.7524 4.2168-11.741 0-0.2716-6e-3 -0.53835-0.0145-0.80357h-8.2078c9e-3 0.26336 0.016 0.52985 0.016 0.80357 0 3.2384-0.66835 5.7533-2.005 7.5448-1.3367 1.7915-3.2246 2.6872-5.6637 2.6872-2.4253 0-4.3064-0.89572-5.6431-2.6872-1.3367-1.7914-2.005-4.3064-2.005-7.5448 0-0.27371 7e-3 -0.54021 0.016-0.80357zm38.59 0 3.8525 16.203h9.1777l3.8261-16.203h-5.5485l-1.833 7.7696-1.8474-7.7696zm20.303 0 3.869 16.203h9.1777l3.8199-16.203h-7.5949l-1.8474 7.7696-1.833-7.7696zm26.644 0c0.0624 0.0688 0.12477 0.13745 0.19017 0.20412 1.4332 1.4469 3.6931 2.5011 6.78 3.1626l3.0799 0.68213c1.8741 0.41341 3.1213 0.88194 3.7414 1.4056 0.63389 0.52366 0.95084 1.2678 0.95084 2.2324 0 1.0749-0.46164 1.9017-1.3849 2.4805-0.92328 0.57877-2.2531 0.86816-3.9894 0.86816-1.7088 0-3.4864-0.26183-5.333-0.78548-1.8328-0.53744-3.7345-1.3298-5.7051-2.3771v6.7179c1.9706 0.73036 3.9412 1.2816 5.9118 1.6536s3.9343 0.55811 5.8911 0.55811c4.1479 0 7.2278-0.82682 9.2398-2.4805 2.0257-1.6674 3.0386-4.203 3.0386-7.6068 0-2.5907-0.72346-4.5889-2.1704-5.9945-0.25938-0.25196-0.55175-0.49194-0.87489-0.72088zm29.418 0v16.203h7.9582v-12.154l12.278 12.154h9.9632l-16.347-16.203zm32.825 0v16.203h7.9582v-16.203z" fill="#f60" style="font-feature-settings:normal;font-variant-caps:normal;font-variant-ligatures:normal;font-variant-numeric:normal"/>
  </g>
 </g>
</svg>
