<?xml version="1.0" encoding="UTF-8"?>
<!-- Created with Inkscape (http://www.inkscape.org/) -->
<svg width="110.71mm" height="298.84mm" version="1.1" viewBox="0 0 110.71 298.84" xmlns="http://www.w3.org/2000/svg">
 <defs>
  <clipPath id="clipPath5433">
   <rect x="96.697" y="-60.125" width="20.316" height="298.96" fill="#fff"/>
  </clipPath>
  <clipPath id="clipPath114">
   <rect x="25.993" y="-60.464" width="32.023" height="299.19" fill="#fff"/>
  </clipPath>
  <clipPath id="clipPath119">
   <rect x="60.994" y="-60.85" width="33.762" height="299.96" ry="0" fill="#fff"/>
  </clipPath>
  <clipPath id="clipPath125">
   <rect x="5.9249" y="-60.222" width="17.573" height="298.88" fill="#fff"/>
  </clipPath>
 </defs>
 <g transform="translate(-6.1955 60.132)">
  <g clip-path="url(#clipPath5433)" fill="#f60">
   <path d="m116.68-59.725h-19.643v7.9582h13.628v2.8525c0 3.266-0.79926 5.7533-2.3978 7.4621-1.5985 1.7088-3.9274 2.5632-6.9867 2.5632-1.6176 0-3.0308-0.24103-4.2437-0.7183v8.4718c1.3094 0.29976 2.7227 0.45268 4.2437 0.45268 2.3013 0 4.3615-0.3514 6.1805-1.0542s3.4244-1.7777 4.8162-3.2246c1.5985-1.6399 2.7285-3.6105 3.39-5.9118 0.67524-2.2875 1.0129-5.774 1.0129-10.459z" style="font-feature-settings:normal;font-variant-caps:normal;font-variant-ligatures:normal;font-variant-numeric:normal"/>
   <path d="m116.78 6.7327c0-4.9472-1.4194-8.8332-4.2581-11.658-2.8388-2.8112-6.7593-4.2168-11.762-4.2168-1.3154 0-2.5538 0.10065-3.7197 0.29611v8.291c1.111-0.23918 2.3498-0.36018 3.7197-0.36018 3.2522 0 5.774 0.66835 7.5654 2.005 1.7914 1.3367 2.6872 3.2177 2.6872 5.6431 0 2.4391-0.89573 4.327-2.6872 5.6637-1.7914 1.3367-4.3133 2.005-7.5654 2.005-1.3699 0-2.6087-0.12049-3.7197-0.35967v8.2698c1.1659 0.19546 2.4043 0.2961 3.7197 0.2961 5.0023 0 8.9228-1.4056 11.762-4.2168 2.8388-2.8112 4.2581-6.6973 4.2581-11.658z" style="font-feature-settings:normal;font-variant-caps:normal;font-variant-ligatures:normal;font-variant-numeric:normal"/>
   <path d="m116.59 44.149h-19.547v7.5448h11.258l-11.258 4.8106v9.6439l11.258 4.8106h-11.258v7.5241h19.547v-10.108l-16.516-7.0693 16.516-7.028z" style="font-feature-settings:normal;font-variant-caps:normal;font-variant-ligatures:normal;font-variant-numeric:normal"/>
   <path d="m116.49 100.02h-19.45v7.9582h19.45z" style="font-feature-settings:normal;font-variant-caps:normal;font-variant-ligatures:normal;font-variant-numeric:normal"/>
   <path d="m116.4 129.52h-19.354v7.5448h9.6594l-9.6594 5.1222v6.4844l19.354-10.263zm0 20.112h-19.354v7.5448h19.354z" style="font-feature-settings:normal;font-variant-caps:normal;font-variant-ligatures:normal;font-variant-numeric:normal"/>
   <path d="m116.3 178.72h-19.257v7.9582h19.257z" style="font-feature-settings:normal;font-variant-caps:normal;font-variant-ligatures:normal;font-variant-numeric:normal"/>
   <path d="m116.2 208.22h-19.161v7.9582h0.45372l-0.45372 0.45839v9.9782l4.5465-4.5868 14.614 14.862v-9.2398l-11.265-11.472h11.265z" style="font-feature-settings:normal;font-variant-caps:normal;font-variant-ligatures:normal;font-variant-numeric:normal"/>
  </g>
  <g clip-path="url(#clipPath119)" fill="#f60">
   <path d="m87.444-51.823h-18.831v2.8525q0 4.8783 2.4185 7.4414 2.4185 2.5838 7.028 2.5838 4.5889 0 6.9867-2.5632 2.3978-2.5632 2.3978-7.4621zm6.0151-7.9582v8.3923q0 7.028-1.0129 10.459-0.99218 3.452-3.39 5.9118-2.0877 2.1704-4.8162 3.2246-2.7285 1.0542-6.1805 1.0542-3.4933 0-6.2425-1.0542-2.7285-1.0542-4.8162-3.2246-2.3978-2.4805-3.4106-5.9531-0.99218-3.4727-0.99218-10.418v-8.3923z" style="font-feature-settings:normal;font-variant-caps:normal;font-variant-ligatures:normal;font-variant-numeric:normal"/>
   <path d="m87.789 6.6767q0-3.638-2.6872-5.6431-2.6872-2.005-7.5654-2.005-4.8576 0-7.5448 2.005-2.6872 2.005-2.6872 5.6431 0 3.6587 2.6872 5.6637 2.6872 2.005 7.5448 2.005 4.8783 0 7.5654-2.005 2.6872-2.005 2.6872-5.6637zm5.7671 0q0 7.4414-4.2581 11.658-4.2581 4.2168-11.762 4.2168-7.4827 0-11.741-4.2168-4.2581-4.2168-4.2581-11.658 0-7.4207 4.2581-11.658 4.2581-4.2168 11.741-4.2168 7.5034 0 11.762 4.2168 4.2581 4.2375 4.2581 11.658z" style="font-feature-settings:normal;font-variant-caps:normal;font-variant-ligatures:normal;font-variant-numeric:normal"/>
   <path d="m93.363 44.092v10.129l-16.516 7.028 16.516 7.0693v10.108h-30.861v-7.5241h22.572l-16.64-7.1107v-5.0436l16.64-7.1107h-22.572v-7.5448z" style="font-feature-settings:normal;font-variant-caps:normal;font-variant-ligatures:normal;font-variant-numeric:normal"/>
   <path d="m93.266 99.967v7.9582h-30.861v-7.9582z" style="font-feature-settings:normal;font-variant-caps:normal;font-variant-ligatures:normal;font-variant-numeric:normal"/>
   <path d="m93.17 129.47v8.8883l-21.167 11.224h21.167v7.5448h-30.861v-8.8883l21.167-11.224h-21.167v-7.5448z" style="font-feature-settings:normal;font-variant-caps:normal;font-variant-ligatures:normal;font-variant-numeric:normal"/>
   <path d="m93.073 178.66v7.9582h-30.861v-7.9582z" style="font-feature-settings:normal;font-variant-caps:normal;font-variant-ligatures:normal;font-variant-numeric:normal"/>
   <path d="m92.977 208.16v7.9582h-11.265l11.265 11.472v9.2398l-14.614-14.862-16.247 16.392v-9.9632l12.154-12.278h-12.154v-7.9582z" style="font-feature-settings:normal;font-variant-caps:normal;font-variant-ligatures:normal;font-variant-numeric:normal"/>
  </g>
  <g clip-path="url(#clipPath114)" fill="#f60">
   <path d="m57.548-59.796v13.208q0 5.8911-2.6252 9.033-2.6045 3.1626-7.4414 3.1626-4.8576 0-7.4828-3.1626-2.6045-3.1419-2.6045-9.033v-5.2503h-10.707v-7.9582zm-5.7671 7.9582h-8.6196v4.4028q0 2.3151 1.1162 3.576 1.1369 1.2609 3.2039 1.2609 2.067 0 3.1833-1.2609 1.1162-1.2609 1.1162-3.576z" style="font-feature-settings:normal;font-variant-caps:normal;font-variant-ligatures:normal;font-variant-numeric:normal"/>
   <path d="m57.548-28.79v7.9582h-30.861v-7.9582z" style="font-feature-settings:normal;font-variant-caps:normal;font-variant-ligatures:normal;font-variant-numeric:normal"/>
   <path d="m52.34 1.0992q0-3.638-2.6872-5.6431-2.6872-2.005-7.5654-2.005-4.8576 0-7.5448 2.005-2.6872 2.005-2.6872 5.6431 0 3.6587 2.6872 5.6637 2.6872 2.005 7.5448 2.005 4.8782 0 7.5654-2.005 2.6872-2.005 2.6872-5.6637zm5.7671 0q0 7.4414-4.2581 11.658-4.2581 4.2168-11.762 4.2168-7.4828 0-11.741-4.2168-4.2581-4.2168-4.2581-11.658 0-7.4207 4.2581-11.658 4.2581-4.2168 11.741-4.2168 7.5034 0 11.762 4.2168 4.2581 4.2375 4.2581 11.658z" style="font-feature-settings:normal;font-variant-caps:normal;font-variant-ligatures:normal;font-variant-numeric:normal"/>
   <path d="m57.548 19.289v28.443h-6.0151v-10.232h-24.846v-7.9582h24.846v-10.253z" style="font-feature-settings:normal;font-variant-caps:normal;font-variant-ligatures:normal;font-variant-numeric:normal"/>
   <path d="m43.865 63.132q0 2.5011 0.93017 3.576 0.93018 1.0955 3.0592 1.0955 2.1084 0 3.0179-1.0955 0.90951-1.0749 0.90951-3.576v-3.3486h-7.9168zm-5.4984-3.3486h-11.679v-7.9582h30.861v12.154q0 6.0978-2.0464 8.9297-2.0464 2.8525-6.4699 2.8525-3.0592 0-5.023-1.4883-1.9637-1.4676-2.8939-4.4442-0.37207 1.633-1.695 2.9146-1.3022 1.3022-3.9688 2.6252l-8.7643 4.3202v-8.4749l7.6688-3.762q2.3151-1.1369 3.1626-2.3151 0.8475-1.1576 0.8475-3.1006z" style="font-feature-settings:normal;font-variant-caps:normal;font-variant-ligatures:normal;font-variant-numeric:normal"/>
   <path d="m52.34 98.499q0-3.638-2.6872-5.6431-2.6872-2.005-7.5654-2.005-4.8576 0-7.5448 2.005-2.6872 2.005-2.6872 5.6431 0 3.6587 2.6872 5.6637 2.6872 2.005 7.5448 2.005 4.8782 0 7.5654-2.005 2.6872-2.005 2.6872-5.6637zm5.7671 0q0 7.4414-4.2581 11.658-4.2581 4.2168-11.762 4.2168-7.4828 0-11.741-4.2168-4.2581-4.2168-4.2581-11.658 0-7.4207 4.2581-11.658 4.2581-4.2168 11.741-4.2168 7.5034 0 11.762 4.2168 4.2581 4.2375 4.2581 11.658z" style="font-feature-settings:normal;font-variant-caps:normal;font-variant-ligatures:normal;font-variant-numeric:normal"/>
   <path d="m57.548 117.74v7.6274l-22.428 5.333 22.428 5.2917v7.6688l-22.428 5.2917 22.428 5.333v7.5654l-30.861-7.276v-9.1777l23.461-5.6017-23.461-5.5397v-9.1777z" style="font-feature-settings:normal;font-variant-caps:normal;font-variant-ligatures:normal;font-variant-numeric:normal"/>
   <path d="m56.577 188.56h-6.5319q1.1369-2.5425 1.7157-4.9609 0.57877-2.4185 0.57877-4.5682 0-2.8525-0.78548-4.2168-0.78548-1.3642-2.4391-1.3642-1.2402 0-1.943 0.9095-0.68213 0.93018-1.1782 3.3486l-0.68213 3.39q-1.0335 5.147-3.1419 7.3174t-5.9945 2.1704q-5.1056 0-7.6068-3.0386-2.4805-3.0179-2.4805-9.2398 0-2.9352 0.5581-5.8911 0.55811-2.9559 1.6536-5.9118h6.7179q-1.571 2.9559-2.3771 5.7051-0.78549 2.7699-0.78549 5.333 0 2.6045 0.86817 3.9894 0.86816 1.3849 2.4805 1.3849 1.4469 0 2.2324-0.95085 0.78548-0.93017 1.4056-3.7414l0.68213-3.0799q0.99218-4.6302 3.1626-6.7799 2.1704-2.1291 5.8498-2.1291 4.6095 0 7.09 2.9766t2.4805 8.5576q0 2.5425-0.39274 5.2296-0.37207 2.6872-1.1369 5.5604z" style="font-feature-settings:normal;font-variant-caps:normal;font-variant-ligatures:normal;font-variant-numeric:normal"/>
   <path d="m57.548 197.59v7.9582h-11.265l11.265 11.472v9.2397l-14.614-14.862-16.247 16.392v-9.9632l12.154-12.278h-12.154v-7.9582z" style="font-feature-settings:normal;font-variant-caps:normal;font-variant-ligatures:normal;font-variant-numeric:normal"/>
   <path d="m57.548 230.42v7.9582h-30.861v-7.9582z" style="font-feature-settings:normal;font-variant-caps:normal;font-variant-ligatures:normal;font-variant-numeric:normal"/>
  </g>
  <g clip-path="url(#clipPath125)">
   <path d="m23.12-59.796h-16.203v7.9582h10.707v5.2503c0 3.9274 0.86817 6.9384 2.6045 9.033 0.80547 0.97037 1.7706 1.7149 2.8913 2.2386zm0 31.006h-16.203v7.9582h16.203zm0 14.029c-0.26522-0.0083-0.53197-0.01447-0.80357-0.01447-4.9885 0-8.9021 1.4056-11.741 4.2168-2.8388 2.825-4.2581 6.711-4.2581 11.658 0 4.9609 1.4194 8.847 4.2581 11.658 2.8388 2.8112 6.7524 4.2168 11.741 4.2168 0.2716 0 0.53835-0.0062 0.80357-0.01447v-8.2078c-0.26336 0.0095-0.52985 0.01602-0.80357 0.01602-3.2384 0-5.7533-0.66835-7.5448-2.005-1.7915-1.3367-2.6872-3.2246-2.6872-5.6637 0-2.4253 0.89572-4.3064 2.6872-5.6431 1.7914-1.3367 4.3064-2.005 7.5448-2.005 0.27371 0 0.54021 0.0066 0.80357 0.01602zm0 44.303h-16.203v7.9582h16.203zm0 22.283h-16.203v7.9582h11.679v2.2531c0 1.2954-0.2825 2.3289-0.84749 3.1006-0.565 0.78548-1.6192 1.5572-3.1626 2.3151l-7.6688 3.762v8.4749l8.7643-4.3202c1.7777-0.88194 3.1006-1.757 3.9688-2.6252 0.88194-0.85438 1.4469-1.8259 1.695-2.9146 0.42777 1.3688 1.0194 2.4982 1.7751 3.3884zm0 30.814c-0.26522-8e-3 -0.53197-0.0145-0.80357-0.0145-4.9885 0-8.9021 1.4056-11.741 4.2168-2.8388 2.825-4.2581 6.711-4.2581 11.658 0 4.9609 1.4194 8.847 4.2581 11.658 2.8388 2.8112 6.7524 4.2168 11.741 4.2168 0.2716 0 0.53835-6e-3 0.80357-0.0145v-8.2078c-0.26336 9e-3 -0.52985 0.016-0.80357 0.016-3.2384 0-5.7533-0.66835-7.5448-2.005-1.7915-1.3367-2.6872-3.2246-2.6872-5.6637 0-2.4253 0.89572-4.3064 2.6872-5.6431 1.7914-1.3367 4.3064-2.005 7.5448-2.005 0.27371 0 0.54021 7e-3 0.80357 0.016zm0 38.59-16.203 3.8525v9.1777l16.203 3.8261v-5.5485l-7.7696-1.833 7.7696-1.8474zm0 20.303-16.203 3.869v9.1777l16.203 3.8199v-7.5949l-7.7696-1.8474 7.7696-1.833zm0 26.644c-0.0688 0.0624-0.13745 0.12477-0.20412 0.19017-1.4469 1.4332-2.5011 3.6931-3.1626 6.78l-0.68213 3.0799c-0.41341 1.8741-0.88194 3.1213-1.4056 3.7414-0.52366 0.63389-1.2678 0.95084-2.2324 0.95084-1.0749 0-1.9017-0.46164-2.4805-1.3849-0.57877-0.92328-0.86816-2.2531-0.86816-3.9894 0-1.7088 0.26183-3.4864 0.78548-5.333 0.53744-1.8328 1.3298-3.7345 2.3771-5.7051h-6.7179c-0.73036 1.9706-1.2816 3.9412-1.6536 5.9118s-0.55811 3.9343-0.55811 5.8911c0 4.1479 0.82682 7.2278 2.4805 9.2398 1.6674 2.0257 4.203 3.0386 7.6068 3.0386 2.5907 0 4.5889-0.72346 5.9945-2.1704 0.25196-0.25938 0.49194-0.55175 0.72088-0.87489zm0 29.418h-16.203v7.9582h12.154l-12.154 12.278v9.9632l16.203-16.347zm0 32.825h-16.203v7.9582h16.203z" fill="#f60" style="font-feature-settings:normal;font-variant-caps:normal;font-variant-ligatures:normal;font-variant-numeric:normal"/>
  </g>
 </g>
</svg>
