<?xml version="1.0" encoding="UTF-8" standalone="no"?>
<svg
   xmlns:dc="http://purl.org/dc/elements/1.1/"
   xmlns:cc="http://creativecommons.org/ns#"
   xmlns:rdf="http://www.w3.org/1999/02/22-rdf-syntax-ns#"
   xmlns:svg="http://www.w3.org/2000/svg"
   xmlns="http://www.w3.org/2000/svg"
   xmlns:sodipodi="http://sodipodi.sourceforge.net/DTD/sodipodi-0.dtd"
   xmlns:inkscape="http://www.inkscape.org/namespaces/inkscape"
   height="18"
   version="1.1"
   viewBox="0 0 25.99918 18"
   width="25.99918"
   id="svg12"
   sodipodi:docname="phone.svg"
   inkscape:version="0.92.4 (5da689c313, 2019-01-14)">
  <metadata
     id="metadata16">
    <rdf:RDF>
      <cc:Work
         rdf:about="">
        <dc:format>image/svg+xml</dc:format>
        <dc:type
           rdf:resource="http://purl.org/dc/dcmitype/StillImage" />
        <dc:title></dc:title>
      </cc:Work>
    </rdf:RDF>
  </metadata>
  <sodipodi:namedview
     pagecolor="#ffffff"
     bordercolor="#666666"
     borderopacity="1"
     objecttolerance="10"
     gridtolerance="10"
     guidetolerance="10"
     inkscape:pageopacity="0"
     inkscape:pageshadow="2"
     inkscape:window-width="1920"
     inkscape:window-height="1057"
     id="namedview14"
     showgrid="false"
     inkscape:zoom="13.111111"
     inkscape:cx="-14.148305"
     inkscape:cy="8.9999999"
     inkscape:window-x="-8"
     inkscape:window-y="-8"
     inkscape:window-maximized="1"
     inkscape:current-layer="Page-1"
     inkscape:pagecheckerboard="true" />
  <desc
     id="desc4" />
  <defs
     id="defs6" />
  <g
     id="Page-1"
     style="fill:none;fill-rule:evenodd;stroke:none;stroke-width:1">
    <g
       id="Icons-Communication"
       transform="translate(-81.00041,-126)"
       style="fill:#ffffff;fill-opacity:1">
      <g
         id="phone"
         transform="translate(85,126)"
         style="fill:#ffffff;fill-opacity:1">
        <path
           d="m 3.6,7.8 c 1.4,2.8 3.8,5.1 6.6,6.6 l 2.2,-2.2 c 0.3,-0.3 0.7,-0.4 1,-0.2 1.1,0.4 2.3,0.6 3.6,0.6 0.6,0 1,0.4 1,1 V 17 c 0,0.6 -0.4,1 -1,1 C 7.6,18 0,10.4 0,1 0,0.4 0.4,0 1,0 h 3.5 c 0.6,0 1,0.4 1,1 0,1.2 0.2,2.4 0.6,3.6 0.1,0.3 0,0.7 -0.2,1 z"
           id="Shape"
           style="fill:#ffffff;fill-opacity:1"
           inkscape:connector-curvature="0" />
      </g>
    </g>
  </g>
</svg>
